PathFileType	4	(X/Y/Z)	 s09c0302.trc
DataRate	CameraRate	NumFrames	NumMarkers	Units	OrigDataRate	OrigDataStartFrame	OrigNumFrames
200	200	4	50	mm	200	501	2000
Frame#	Time	racr			lacr			c7			jug			rlel			rdr			llel			ldr			s2			lic			ric			lasi			rasi			rpsi			lpsi			rgt			lgt			rth1			rth2			rth3			rth4			rlfc			rmfc			rsh1			rsh2			rsh3			rsh4			rlmal			rmmal			rcal			rtoe			rmt5			lth1			lth2			lth4			lth3			llfc			lmfc			llmal			lmmal			lcal			lmt5			lsh1			lsh2			lsh3			lsh4			ltoe			SBIKE			LBIKE			RBIKE			
		X1	Y1	Z1	X2	Y2	Z2	X3	Y3	Z3	X4	Y4	Z4	X5	Y5	Z5	X6	Y6	Z6	X7	Y7	Z7	X8	Y8	Z8	X9	Y9	Z9	X10	Y10	Z10	X11	Y11	Z11	X12	Y12	Z12	X13	Y13	Z13	X14	Y14	Z14	X15	Y15	Z15	X16	Y16	Z16	X17	Y17	Z17	X18	Y18	Z18	X19	Y19	Z19	X20	Y20	Z20	X21	Y21	Z21	X22	Y22	Z22	X23	Y23	Z23	X24	Y24	Z24	X25	Y25	Z25	X26	Y26	Z26	X27	Y27	Z27	X28	Y28	Z28	X29	Y29	Z29	X30	Y30	Z30	X31	Y31	Z31	X32	Y32	Z32	X33	Y33	Z33	X34	Y34	Z34	X35	Y35	Z35	X36	Y36	Z36	X37	Y37	Z37	X38	Y38	Z38	X39	Y39	Z39	X40	Y40	Z40	X41	Y41	Z41	X42	Y42	Z42	X43	Y43	Z43	X44	Y44	Z44	X45	Y45	Z45	X46	Y46	Z46	X47	Y47	Z47	X48	Y48	Z48	X49	Y49	Z49	X50	Y50	Z50	
501	2.5050	640.980653	1355.610856	-137.898292	709.843812	1226.627385	-481.319446	670.705946	1371.529159	-332.457005	677.827595	1247.229692	-287.819311	579.425518	1098.811195	-70.617706	718.937138	881.133406	-65.435219	521.229526	1025.554336	-562.224188	691.912220	882.448445	-457.612110	201.374336	1156.786648	-317.242732	355.057389	1098.871461	-437.930821	327.467806	1180.300151	-156.038451	385.069054	1046.020588	-394.907900	360.659134	1117.643611	-157.809626	225.774252	1199.743890	-261.495752	238.636525	1178.396406	-369.539133	285.803651	1053.708202	-84.649474	297.984954	978.057691	-455.600462	385.788976	952.471249	-68.637391	459.664298	904.665706	-65.624171	494.001053	823.159006	-60.181529	483.730561	921.335853	-88.162935	523.584659	724.777850	-76.408334	509.280857	703.496831	-174.051972	424.210059	692.706159	-51.794954	358.505530	632.813918	-68.158893	272.947990	615.390505	-71.505445	374.570480	610.176035	-95.042146	182.769153	566.049162	-76.299069	194.903850	570.158233	-151.664698	108.971033	597.227655	-114.393846	271.186207	388.125270	-128.883931	209.063799	439.638067	-61.472812	351.810971	858.907951	-445.733561	405.456067	794.488026	-430.962508	438.094099	809.284620	-419.935742	419.563007	705.525142	-417.113386	442.754692	614.616011	-397.775198	445.621758	603.667858	-303.678093	303.261665	273.118617	-410.523958	318.273629	282.519894	-334.267852	229.664865	237.438784	-373.403889	397.898738	188.710044	-432.862855	400.150604	522.153037	-422.080243	390.971597	436.591517	-412.668656	339.326545	364.485023	-412.529180	414.642848	430.047395	-380.622090	490.868960	206.504387	-364.759914	-64.636376	851.900157	-240.577947	20.824912	84.548080	-442.218960	21.046015	84.071389	-43.980011	
502	2.5100	634.079683	1355.914901	-131.535403	712.070664	1229.851225	-476.534496	667.392635	1373.291776	-327.243636	676.152694	1248.946782	-282.821457	573.374958	1096.989821	-70.669165	717.952392	882.416556	-66.034367	527.974815	1028.890974	-566.071180	692.985989	882.226397	-458.547246	200.751031	1155.016416	-322.173062	357.252589	1096.684489	-438.942159	322.534387	1181.581220	-157.474219	386.474231	1044.543651	-394.740312	357.683681	1118.745949	-158.673394	224.352877	1198.300842	-266.311514	239.210191	1176.315201	-373.925942	282.376439	1055.129991	-86.659673	300.394059	976.353381	-456.917900	383.810542	955.174610	-68.634399	458.704605	909.413285	-64.692579	495.005565	828.607632	-59.071710	482.758770	926.430034	-87.150949	527.471612	731.416729	-75.135032	514.185678	709.357300	-173.046422	427.956373	699.122269	-51.230322	362.549078	639.010783	-67.641573	277.087412	621.299363	-71.552699	379.008736	616.262218	-94.083186	187.102948	571.413090	-76.980954	199.557170	575.649443	-152.039703	113.710373	602.007935	-114.855031	277.853822	394.609091	-128.959379	215.049731	445.501054	-61.793017	350.806734	856.609244	-445.834447	402.939531	791.140076	-430.447633	435.564436	805.116105	-418.969105	415.197201	701.981554	-416.284663	436.621485	610.723328	-396.766362	437.995234	599.806036	-302.609281	298.383099	268.996040	-411.544514	313.023507	278.176102	-335.296391	224.422295	234.269343	-375.298744	392.760412	183.300470	-432.838342	394.345868	518.334464	-421.790114	385.482619	432.696241	-412.656569	334.167787	360.388462	-413.193701	408.875955	426.265913	-380.450078	485.183043	200.050629	-363.716894	-64.708316	851.881470	-240.675642	20.822654	84.540723	-442.233831	21.042136	84.096120	-43.988223	
503	2.5150	627.145168	1356.105697	-125.149041	714.177097	1233.723716	-471.715308	664.359838	1374.957889	-322.144751	674.500860	1250.380437	-278.466614	567.333177	1095.034622	-70.766812	716.971827	883.845348	-66.365473	535.884471	1032.809787	-570.232817	694.253526	881.965480	-459.223216	200.302532	1153.524789	-326.741964	359.550202	1094.835326	-439.850100	317.793444	1183.248113	-158.956244	387.712568	1043.238918	-393.398844	354.883117	1119.739544	-159.360238	222.800170	1196.865285	-271.234153	239.994667	1174.452791	-377.878603	278.479985	1056.413327	-89.089835	302.824639	974.937832	-458.196692	381.921440	958.131483	-69.008692	457.596097	914.054452	-64.354467	496.063733	834.131745	-58.022178	481.588687	931.479787	-86.768386	531.187645	738.151708	-74.128777	518.587957	716.930924	-171.271212	431.746508	705.502332	-50.742034	366.671461	645.084193	-67.127478	281.280621	627.002848	-71.587547	383.380579	622.062909	-93.239301	191.615480	576.465845	-77.402198	204.647765	581.659061	-153.032226	117.828371	606.442001	-115.031561	285.756316	402.047535	-127.772062	221.208972	451.163388	-62.113873	349.778830	854.681415	-445.797467	400.333741	788.159280	-429.991740	433.034237	801.501330	-418.138686	410.340620	698.902324	-416.043764	430.539353	607.261606	-395.954396	430.234283	596.221932	-301.692920	293.382168	265.249934	-412.630850	307.481997	274.238595	-336.480948	219.235132	231.242646	-377.192464	387.407153	178.219316	-432.805386	388.465324	514.950534	-421.783733	379.940277	429.206145	-412.819949	329.016259	356.634629	-414.003083	402.962359	422.848012	-380.353688	479.362164	193.942322	-362.778872	-64.796443	851.892434	-240.718768	20.809757	84.506801	-442.218804	21.026519	84.090791	-43.989335	
504	2.5200	620.259799	1356.280260	-119.172049	716.156524	1238.082129	-466.710795	661.340814	1376.790318	-316.912850	672.857292	1251.939845	-274.151014	561.936724	1093.372501	-70.599180	715.950247	885.388329	-66.468700	543.763553	1036.600652	-573.548299	695.628998	881.668400	-459.707059	200.798267	1152.229833	-331.341787	361.846840	1093.341252	-440.598189	315.512357	1183.765716	-161.820269	389.074899	1042.006111	-393.380821	352.253569	1120.751839	-160.099130	222.415332	1196.060385	-275.337139	241.412568	1173.042161	-381.440158	274.919882	1057.519000	-91.089933	305.183000	973.861225	-459.395926	380.100514	961.008385	-69.748806	456.504792	918.625906	-64.664863	497.096154	839.981204	-57.188291	480.390077	936.423741	-86.824082	534.861398	744.665620	-73.132167	524.254293	722.350269	-172.426992	435.631104	711.464259	-50.330262	370.741523	651.219493	-66.621649	285.342556	632.725934	-71.466150	387.725910	627.626745	-92.608167	196.887687	581.152428	-76.762472	208.958575	585.886521	-152.787161	122.082951	610.346422	-115.253340	291.411438	406.919931	-129.182945	227.662442	456.334383	-62.188670	348.576096	853.014035	-445.934196	397.622549	785.516478	-429.656150	430.548422	798.311861	-417.389941	405.880064	696.231450	-415.971631	424.356239	604.168694	-395.384208	422.378946	592.977751	-300.976338	288.149864	261.691419	-413.332626	302.068036	270.758382	-337.362846	213.804047	228.568696	-378.007947	381.294789	173.193054	-432.803065	382.617617	511.860613	-421.865923	374.400416	426.038285	-413.150037	323.722325	353.359043	-414.818214	397.102426	419.906844	-380.428094	473.300209	188.163864	-362.723695	-64.925020	851.868605	-240.800887	20.804633	84.471808	-442.226783	21.038057	84.097376	-43.977721	
